<svg width="640" height="640" xmlns="http://www.w3.org/2000/svg">
    <defs>
        <filter id="shadow" x="-50%" y="-50%" width="200%" height="200%">
            <feGaussianBlur in="SourceAlpha" stdDeviation="5" result="shadowlayer" />
            <feBlend in="SourceGraphic" in2="url(#shadowlayer)" mode="normal"/>
        </filter>
        <mask id="pentaMask" width="896" height="384">
            <rect x="-128" y="-128" width="896" height="384" fill="white" />
            <rect x="-128" y="-128" width="896" height="384" fill="black" transform="rotate(72,320,320)" />        
            <rect x="-128" y="256" width="896" height="128" fill="black" transform="rotate(288,320,320)" />
        </mask>
    </defs>
    <rect x="0" y="0" width="640" height="640" fill="rgb(255,251,251)" />
    <g filter="url(#shadow)">
        <rect x="-128" y="-128" width="896" height="384" fill="rgb(255,102,102)" mask="url(#pentaMask)" />
        <rect x="-128" y="-128" width="896" height="384" fill="rgb(255,204,50)" mask="url(#pentaMask)" transform="rotate(72,320,320)" />
        <rect x="-128" y="-128" width="896" height="384" fill="rgb(153,204,102)" mask="url(#pentaMask)" transform="rotate(144,320,320)" />
        <rect x="-128" y="-128" width="896" height="384" fill="rgb(102,153,255)" mask="url(#pentaMask)" transform="rotate(216,320,320)" />
        <rect x="-128" y="-128" width="896" height="384" fill="rgb(153,0,153)" mask="url(#pentaMask)" transform="rotate(288,320,320)" />
    </g>
</svg>